<svg width="267" height="65" xmlns="http://www.w3.org/2000/svg" xmlns:xlink="http://www.w3.org/1999/xlink" xml:space="preserve" overflow="hidden"><g transform="translate(-1616 -684)"><path d="M1835.37 721.194C1835.08 721.194 1834.75 721.273 1834.37 721.431 1833.98 721.589 1833.63 721.784 1833.31 722.016 1832.99 722.249 1832.73 722.487 1832.52 722.732 1832.32 722.977 1832.22 723.176 1832.22 723.329 1832.22 723.784 1832.47 724.012 1832.97 724.012 1833.14 724.012 1833.38 723.929 1833.67 723.763 1833.96 723.598 1834.25 723.38 1834.54 723.112 1834.83 722.843 1835.07 722.579 1835.24 722.321 1835.42 722.062 1835.5 721.842 1835.5 721.659 1835.5 721.479 1835.49 721.357 1835.46 721.292 1835.43 721.227 1835.4 721.194 1835.37 721.194ZM1759.91 717.092C1759.72 717.092 1759.52 717.167 1759.3 717.315 1759.08 717.464 1758.88 717.667 1758.7 717.925 1758.52 718.183 1758.37 718.486 1758.25 718.833 1758.13 719.18 1758.07 719.553 1758.07 719.953 1758.07 720.539 1758.2 720.999 1758.46 721.333 1758.73 721.667 1759.09 721.834 1759.55 721.834 1759.98 721.834 1760.37 721.629 1760.7 721.22 1761.04 720.81 1761.21 720.218 1761.21 719.445 1761.21 718.519 1761.08 717.896 1760.83 717.574 1760.58 717.253 1760.27 717.092 1759.91 717.092ZM1781.4 714.987C1781.04 714.987 1780.66 715.044 1780.29 715.157 1779.92 715.27 1779.59 715.411 1779.32 715.581 1779.04 715.751 1778.83 715.937 1778.69 716.141 1778.54 716.344 1778.47 716.526 1778.47 716.686 1778.47 716.74 1778.49 716.789 1778.52 716.833 1778.56 716.876 1778.61 716.898 1778.68 716.898 1779 716.898 1779.38 716.841 1779.81 716.729 1780.25 716.617 1780.67 716.486 1781.07 716.336 1781.48 716.187 1781.79 716.034 1782.03 715.88 1782.26 715.725 1782.38 715.631 1782.38 715.597 1782.38 715.45 1782.29 715.311 1782.13 715.182 1781.97 715.052 1781.73 714.987 1781.4 714.987ZM1738.4 714.987C1738.04 714.987 1737.66 715.044 1737.29 715.157 1736.92 715.27 1736.59 715.411 1736.32 715.581 1736.04 715.751 1735.83 715.937 1735.69 716.141 1735.54 716.344 1735.47 716.526 1735.47 716.686 1735.47 716.74 1735.49 716.789 1735.52 716.833 1735.56 716.876 1735.61 716.898 1735.68 716.898 1736 716.898 1736.38 716.841 1736.81 716.729 1737.25 716.617 1737.67 716.486 1738.07 716.336 1738.48 716.187 1738.79 716.034 1739.03 715.88 1739.26 715.725 1739.38 715.631 1739.38 715.597 1739.38 715.45 1739.29 715.311 1739.13 715.182 1738.97 715.052 1738.73 714.987 1738.4 714.987ZM1715.47 710.741C1715.01 710.741 1714.66 710.954 1714.42 711.382 1714.19 711.809 1714.07 712.416 1714.07 713.202 1714.07 713.807 1714.13 714.157 1714.25 714.251 1714.38 714.346 1714.58 714.393 1714.86 714.393 1715.02 714.393 1715.21 714.349 1715.42 714.26 1715.63 714.171 1715.83 714.032 1716.04 713.845 1716.25 713.657 1716.43 713.423 1716.57 713.144 1716.7 712.865 1716.77 712.546 1716.77 712.185 1716.77 711.222 1716.34 710.741 1715.47 710.741ZM1781.11 709.457C1782.41 709.457 1783.58 709.635 1784.62 709.991 1785.66 710.347 1786.54 710.836 1787.25 711.459 1787.96 712.083 1788.51 712.815 1788.89 713.658 1789.28 714.5 1789.47 715.401 1789.47 716.359 1789.47 717.212 1789.19 717.908 1788.64 718.447 1788.08 718.987 1787.42 719.414 1786.64 719.729 1785.85 720.044 1785.04 720.291 1784.19 720.471 1783.34 720.65 1782.54 720.813 1781.79 720.958 1781.04 721.104 1780.45 721.243 1780.04 721.374 1779.62 721.506 1779.41 721.613 1779.41 721.695 1779.41 721.941 1779.55 722.177 1779.84 722.403 1780.12 722.628 1780.69 722.741 1781.55 722.741 1782.1 722.741 1782.61 722.641 1783.08 722.442 1783.54 722.242 1783.97 722.009 1784.37 721.744 1784.77 721.479 1785.15 721.228 1785.5 720.992 1785.86 720.755 1786.19 720.636 1786.49 720.636 1786.9 720.67 1787.29 720.82 1787.66 721.087 1788.04 721.354 1788.39 721.676 1788.71 722.051 1789.03 722.427 1789.3 722.833 1789.51 723.27 1789.72 723.706 1789.83 724.125 1789.83 724.527 1789.83 725.003 1789.59 725.523 1789.11 726.085 1788.63 726.647 1787.99 727.16 1787.2 727.624 1786.41 728.088 1785.48 728.481 1784.41 728.804 1783.34 729.127 1782.18 729.288 1780.93 729.288 1779.52 729.288 1778.2 729.07 1776.97 728.634 1775.73 728.197 1774.65 727.561 1773.71 726.726 1772.77 725.89 1772.04 724.882 1771.52 723.702 1770.99 722.522 1770.72 721.188 1770.72 719.699 1770.72 718.2 1770.98 716.83 1771.51 715.589 1772.03 714.347 1772.76 713.266 1773.69 712.346 1774.62 711.426 1775.72 710.714 1776.99 710.211 1778.26 709.708 1779.64 709.457 1781.11 709.457ZM1738.11 709.457C1739.41 709.457 1740.58 709.635 1741.62 709.991 1742.66 710.347 1743.54 710.836 1744.25 711.459 1744.96 712.083 1745.51 712.815 1745.89 713.658 1746.28 714.5 1746.47 715.401 1746.47 716.359 1746.47 717.212 1746.19 717.908 1745.64 718.447 1745.08 718.987 1744.42 719.414 1743.64 719.729 1742.85 720.044 1742.04 720.291 1741.19 720.471 1740.34 720.65 1739.54 720.813 1738.79 720.958 1738.04 721.104 1737.45 721.243 1737.04 721.374 1736.62 721.506 1736.41 721.613 1736.41 721.695 1736.41 721.941 1736.55 722.177 1736.84 722.403 1737.12 722.628 1737.69 722.741 1738.55 722.741 1739.1 722.741 1739.61 722.641 1740.08 722.442 1740.54 722.242 1740.97 722.009 1741.37 721.744 1741.77 721.479 1742.15 721.228 1742.5 720.992 1742.86 720.755 1743.19 720.636 1743.49 720.636 1743.9 720.67 1744.29 720.82 1744.66 721.087 1745.04 721.354 1745.39 721.676 1745.71 722.051 1746.03 722.427 1746.3 722.833 1746.51 723.27 1746.72 723.706 1746.83 724.125 1746.83 724.527 1746.83 725.003 1746.59 725.523 1746.11 726.085 1745.63 726.647 1744.99 727.16 1744.2 727.624 1743.41 728.088 1742.48 728.481 1741.41 728.804 1740.34 729.127 1739.18 729.288 1737.93 729.288 1736.52 729.288 1735.2 729.07 1733.97 728.634 1732.73 728.197 1731.65 727.561 1730.71 726.726 1729.77 725.89 1729.04 724.882 1728.52 723.702 1727.99 722.522 1727.72 721.188 1727.72 719.699 1727.72 718.2 1727.98 716.83 1728.51 715.589 1729.03 714.347 1729.76 713.266 1730.69 712.346 1731.62 711.426 1732.72 710.714 1733.99 710.211 1735.26 709.708 1736.64 709.457 1738.11 709.457ZM1818.34 709.384C1818.98 709.384 1819.61 709.503 1820.23 709.74 1820.85 709.978 1821.39 710.319 1821.85 710.765 1822.31 711.21 1822.68 711.736 1822.95 712.343 1823.22 712.949 1823.35 713.61 1823.35 714.327 1823.35 715.269 1823.32 716.134 1823.26 716.919 1823.2 717.704 1823.14 718.416 1823.09 719.053 1823.05 719.689 1823.03 720.263 1823.04 720.772 1823.05 721.281 1823.12 721.777 1823.26 722.26 1823.38 722.67 1823.52 722.998 1823.69 723.245 1823.85 723.491 1824.02 723.71 1824.17 723.902 1824.33 724.095 1824.47 724.294 1824.61 724.501 1824.74 724.708 1824.81 724.958 1824.81 725.252 1824.81 725.762 1824.59 726.251 1824.16 726.721 1823.73 727.191 1823.21 727.616 1822.59 727.995 1821.97 728.375 1821.29 728.685 1820.55 728.926 1819.81 729.167 1819.11 729.288 1818.45 729.288 1817.73 729.288 1817.12 729.097 1816.61 728.714 1816.11 728.332 1815.7 727.734 1815.39 726.919 1815.08 726.105 1814.85 725.093 1814.72 723.883 1814.59 722.673 1814.52 721.194 1814.52 719.445 1814.52 718.596 1814.45 718.04 1814.3 717.777 1814.16 717.514 1814 717.383 1813.84 717.383 1813.69 717.383 1813.52 717.434 1813.33 717.537 1813.14 717.64 1812.97 717.825 1812.82 718.092 1812.66 718.358 1812.53 718.752 1812.42 719.272 1812.3 719.792 1812.25 720.454 1812.25 721.26 1812.25 721.82 1812.28 722.285 1812.35 722.652 1812.41 723.02 1812.5 723.377 1812.59 723.722 1812.69 724.068 1812.78 724.419 1812.86 724.776 1812.93 725.133 1812.97 725.522 1812.97 725.942 1812.97 726.443 1812.8 726.896 1812.45 727.301 1812.1 727.705 1811.65 728.05 1811.11 728.336 1810.56 728.622 1809.96 728.84 1809.31 728.991 1808.66 729.141 1807.99 729.216 1807.3 729.216 1806.61 729.216 1806.05 729.051 1805.62 728.722 1805.19 728.393 1804.87 727.835 1804.65 727.048 1804.43 726.261 1804.29 725.224 1804.23 723.939 1804.17 722.653 1804.14 721.022 1804.14 719.045 1804.14 718.354 1804.07 717.916 1803.94 717.732 1803.8 717.548 1803.63 717.456 1803.42 717.456 1802.91 717.456 1802.54 717.619 1802.3 717.946 1802.06 718.273 1801.94 718.942 1801.94 719.953 1801.94 720.234 1801.97 720.643 1802.03 721.182 1802.08 721.721 1802.14 722.305 1802.2 722.934 1802.27 723.563 1802.33 724.203 1802.39 724.852 1802.45 725.502 1802.48 726.01 1802.48 726.378 1802.48 727.323 1802.2 728.08 1801.65 728.651 1801.09 729.221 1800.19 729.506 1798.95 729.506 1798.23 729.506 1797.5 729.475 1796.76 729.414 1796.03 729.353 1795.35 729.238 1794.73 729.071 1794.11 728.904 1793.59 728.65 1793.15 728.31 1792.71 727.969 1792.49 727.506 1792.49 726.922 1792.49 726.289 1792.55 725.465 1792.69 724.449 1792.82 723.434 1792.89 722.201 1792.89 720.751 1792.89 719.919 1792.84 719.178 1792.74 718.527 1792.64 717.877 1792.54 717.301 1792.42 716.8 1792.3 716.298 1792.19 715.837 1792.09 715.418 1791.99 714.998 1791.94 714.586 1791.94 714.182 1791.94 713.713 1792.19 713.227 1792.68 712.721 1793.17 712.216 1793.76 711.764 1794.43 711.364 1795.1 710.965 1795.82 710.632 1796.58 710.365 1797.34 710.098 1798.01 709.965 1798.59 709.965 1799.01 709.965 1799.36 710.103 1799.66 710.379 1799.95 710.656 1800.18 710.942 1800.35 711.238 1800.52 711.534 1800.67 711.771 1800.78 711.949 1800.89 712.126 1800.95 712.215 1800.95 712.215 1800.96 712.215 1801.07 712.097 1801.3 711.861 1801.52 711.624 1801.88 711.336 1802.36 710.996 1802.83 710.656 1803.43 710.338 1804.15 710.044 1804.87 709.749 1805.74 709.602 1806.76 709.602 1807.85 709.602 1808.73 709.752 1809.4 710.052 1810.07 710.353 1810.59 710.69 1810.96 711.065 1811.33 711.439 1811.59 711.743 1811.72 711.975 1811.85 712.208 1811.9 712.324 1811.88 712.324 1811.94 712.324 1812.12 712.188 1812.42 711.916 1812.71 711.643 1813.13 711.312 1813.67 710.921 1814.21 710.53 1814.87 710.176 1815.63 709.859 1816.39 709.543 1817.29 709.384 1818.34 709.384ZM1835.98 709.311C1836.99 709.311 1837.95 709.451 1838.88 709.73 1839.8 710.01 1840.63 710.431 1841.34 710.994 1842.06 711.556 1842.63 712.241 1843.07 713.047 1843.5 713.853 1843.72 714.764 1843.72 715.779 1843.72 716.749 1843.69 717.605 1843.63 718.345 1843.56 719.085 1843.49 719.723 1843.41 720.259 1843.32 720.795 1843.25 721.256 1843.19 721.643 1843.13 722.029 1843.1 722.397 1843.1 722.748 1843.1 723.356 1843.14 723.819 1843.22 724.137 1843.3 724.455 1843.39 724.707 1843.49 724.892 1843.59 725.076 1843.69 725.24 1843.81 725.381 1843.92 725.522 1843.98 725.722 1843.98 725.978 1843.98 726.346 1843.78 726.729 1843.4 727.125 1843.02 727.522 1842.55 727.886 1842 728.218 1841.45 728.55 1840.86 728.829 1840.23 729.056 1839.6 729.284 1839.01 729.397 1838.45 729.397 1837.98 729.397 1837.58 729.312 1837.25 729.143 1836.93 728.973 1836.67 728.791 1836.47 728.596 1836.28 728.401 1836.13 728.244 1836.04 728.124 1835.95 728.005 1835.92 727.945 1835.95 727.945 1835.89 727.945 1835.72 728.015 1835.44 728.154 1835.16 728.294 1834.79 728.449 1834.33 728.62 1833.86 728.79 1833.33 728.951 1832.73 729.1 1832.13 729.25 1831.49 729.324 1830.79 729.324 1828.8 729.324 1827.29 728.837 1826.26 727.862 1825.24 726.887 1824.72 725.69 1824.72 724.272 1824.72 723.028 1825 721.983 1825.55 721.14 1826.1 720.296 1826.79 719.602 1827.63 719.058 1828.46 718.514 1829.34 718.087 1830.27 717.779 1831.19 717.47 1832.05 717.203 1832.84 716.977 1833.62 716.75 1834.24 716.543 1834.69 716.356 1835.14 716.168 1835.36 715.976 1835.36 715.779 1835.36 715.7 1835.31 715.615 1835.2 715.524 1835.09 715.432 1834.9 715.386 1834.6 715.386 1833.85 715.386 1833.15 715.514 1832.48 715.77 1831.82 716.026 1831.22 716.306 1830.7 716.61 1830.17 716.914 1829.67 717.216 1829.19 717.515 1828.71 717.814 1828.29 717.964 1827.93 717.964 1827.26 717.964 1826.83 717.652 1826.63 717.029 1826.42 716.407 1826.32 715.772 1826.32 715.125 1826.32 714.686 1826.35 714.275 1826.4 713.893 1826.45 713.51 1826.55 713.203 1826.69 712.973 1826.92 712.486 1827.31 712.016 1827.87 711.564 1828.43 711.111 1829.1 710.723 1829.9 710.4 1830.7 710.076 1831.62 709.814 1832.66 709.613 1833.7 709.412 1834.81 709.311 1835.98 709.311ZM1715.91 702.96C1717.39 702.96 1718.77 703.135 1720.03 703.487 1721.3 703.838 1722.4 704.362 1723.32 705.056 1724.24 705.751 1724.96 706.632 1725.46 707.698 1725.97 708.765 1726.23 709.982 1726.23 711.351 1726.23 712.732 1726 713.907 1725.54 714.875 1725.08 715.843 1724.62 716.548 1724.16 716.992 1723.46 717.901 1722.79 718.477 1722.12 718.72 1722.16 718.624 1722.33 718.657 1722.62 718.82 1723.01 719.05 1723.48 719.508 1724.01 720.193 1724.32 720.628 1724.57 721.052 1724.77 721.465 1724.97 721.878 1725.17 722.27 1725.37 722.643 1725.57 723.015 1725.76 723.315 1725.95 723.542 1726.13 723.769 1726.34 723.919 1726.58 723.991 1726.89 724.085 1727.13 724.222 1727.29 724.402 1727.45 724.581 1727.53 724.877 1727.53 725.289 1727.53 725.822 1727.31 726.322 1726.85 726.788 1726.4 727.254 1725.85 727.65 1725.2 727.976 1724.54 728.303 1723.83 728.567 1723.05 728.768 1722.26 728.97 1721.5 729.071 1720.74 729.071 1719.96 729.071 1719.34 728.92 1718.88 728.617 1718.43 728.315 1718.07 727.914 1717.81 727.415 1717.55 726.916 1717.32 726.384 1717.13 725.82 1716.94 725.255 1716.69 724.657 1716.4 724.026 1716.04 723.305 1715.77 722.87 1715.6 722.723 1715.42 722.575 1715.22 722.501 1715 722.501 1714.75 722.501 1714.58 722.525 1714.49 722.573 1714.4 722.622 1714.36 722.813 1714.36 723.147 1714.36 723.59 1714.39 723.986 1714.45 724.333 1714.51 724.681 1714.57 724.98 1714.64 725.231 1714.71 725.482 1714.77 725.737 1714.84 725.994 1714.91 726.252 1714.94 726.513 1714.94 726.777 1714.94 727.198 1714.69 727.577 1714.2 727.914 1713.71 728.252 1713.14 728.539 1712.49 728.775 1711.85 729.01 1711.14 729.203 1710.38 729.354 1709.62 729.504 1708.9 729.579 1708.22 729.579 1707.59 729.579 1707.06 729.323 1706.65 728.812 1706.24 728.3 1705.91 727.602 1705.67 726.718 1705.43 725.834 1705.25 724.781 1705.14 723.559 1705.03 722.338 1704.98 720.954 1704.98 719.408 1704.98 717.749 1705.03 716.124 1705.14 714.533 1705.25 712.942 1705.42 711.509 1705.63 710.234 1705.85 708.958 1706.14 707.847 1706.5 706.9 1706.85 705.953 1707.32 705.31 1707.88 704.969 1708.91 704.353 1710.08 703.864 1711.39 703.502 1712.7 703.141 1714.21 702.96 1715.91 702.96ZM1767.06 700.637C1769.1 700.637 1770.12 701.752 1770.12 703.982 1770.12 704.889 1770.05 705.982 1769.93 707.261 1769.81 708.541 1769.67 709.869 1769.51 711.247 1769.35 712.624 1769.21 714.003 1769.1 715.382 1768.98 716.761 1768.92 718.103 1768.92 719.408 1768.92 720.401 1769 721.168 1769.16 721.709 1769.32 722.25 1769.51 722.689 1769.71 723.024 1769.92 723.359 1770.12 723.66 1770.31 723.928 1770.5 724.195 1770.59 724.528 1770.59 724.925 1770.59 725.381 1770.37 725.857 1769.92 726.353 1769.48 726.85 1768.96 727.305 1768.36 727.72 1767.75 728.135 1767.09 728.488 1766.37 728.779 1765.65 729.07 1764.97 729.216 1764.34 729.216 1763.89 729.216 1763.53 729.114 1763.25 728.909 1762.98 728.705 1762.76 728.49 1762.59 728.263 1762.43 728.036 1762.29 727.86 1762.18 727.735 1762.08 727.609 1762 727.546 1761.94 727.546 1761.83 727.546 1761.65 727.622 1761.43 727.774 1761.2 727.925 1760.86 728.109 1760.4 728.326 1759.94 728.543 1759.38 728.739 1758.71 728.915 1758.04 729.091 1757.22 729.179 1756.24 729.179 1755.16 729.179 1754.16 728.932 1753.24 728.436 1752.33 727.941 1751.54 727.279 1750.88 726.451 1750.22 725.623 1749.7 724.684 1749.34 723.633 1748.98 722.582 1748.8 721.488 1748.8 720.352 1748.8 718.708 1749.08 717.246 1749.66 715.965 1750.23 714.684 1750.94 713.593 1751.81 712.691 1752.67 711.79 1753.62 711.104 1754.65 710.634 1755.68 710.164 1756.65 709.928 1757.55 709.928 1758.15 709.928 1758.69 709.98 1759.16 710.085 1759.62 710.189 1760.02 710.306 1760.34 710.435 1760.65 710.564 1760.91 710.676 1761.11 710.769 1761.31 710.862 1761.44 710.909 1761.51 710.909 1761.62 710.909 1761.68 710.705 1761.68 710.298 1761.68 709.734 1761.62 709.162 1761.49 708.583 1761.36 708.004 1761.22 707.477 1761.08 707.001 1760.93 706.526 1760.79 706.03 1760.64 705.512 1760.49 704.995 1760.41 704.545 1760.41 704.164 1760.41 703.751 1760.66 703.342 1761.17 702.934 1761.67 702.527 1762.25 702.156 1762.9 701.823 1763.56 701.489 1764.26 701.208 1765.03 700.979 1765.79 700.751 1766.47 700.637 1767.06 700.637Z" stroke="#FFFFFF" stroke-linejoin="round" stroke-miterlimit="10" fill="#AA3939" fill-rule="evenodd"/><text fill="#000000" fill-opacity="0" font-family="Arial,Arial_MSFontService,sans-serif" font-size="28.9421" x="1704.98" y="725.961">Redema</text><g><g><g><path d="M48.3245 64.5416C50.6499 61.9181 63.9478 46.9334 72.2608 37.5722 79.7093 29.1855 79.5461 16.9561 72.7802 9.37116 66.008 1.77838 55.0606 1.81133 48.3245 9.43706 41.5885 1.81133 30.641 1.77838 23.8751 9.36331 17.103 16.9498 16.9461 29.1792 24.3882 37.5722 32.7012 46.9334 45.9991 61.9181 48.3245 64.5416Z" stroke="#FFFFFF" stroke-width="3.13816" stroke-miterlimit="10" fill="#AA3939" transform="matrix(1.00438 0 0 1 1615.98 682.065)"/><path d="M48.3277 8.78685C51.4658 6.06711 54.604 4.44572 57.7421 3.9227 60.8803 3.39968 62.1878 4.44572 61.6648 7.06086 61.1419 9.676 60.3573 12.0296 59.3112 14.1217 58.2651 16.2138 57.7421 17.5214 57.7421 18.0444 57.7421 18.5674 58.0037 18.829 58.5267 18.829 59.0497 18.829 59.8342 18.829 60.8803 18.829 61.9264 18.829 63.4955 19.3519 65.5875 20.398 67.6796 21.4441 69.2487 23.0132 70.2948 25.1053 71.3409 27.1973 73.4329 28.7664 76.5711 29.8125 79.7093 30.8586 80.7554 32.9507 79.7093 36.0888 78.6632 39.227 77.0941 41.3191 75.002 42.3652 72.91 43.4113 70.8178 44.1958 68.7257 44.7188 66.6336 45.2418 64.803 46.2879 63.2339 47.8569 61.6648 49.426 59.0497 52.3026 55.3885 56.4869 51.7274 60.6711 49.6352 63.0248 49.1122 63.5477 48.5892 64.0707 48.0661 64.0707 47.5431 63.5477 47.0201 63.0248 43.882 59.3635 38.1286 52.5642 32.3753 45.7649 27.6681 41.3191 24.0069 39.227 20.3458 37.1349 16.1615 35.8273 11.4543 35.3043 6.74704 34.7813 3.60888 32.1661 2.0398 27.4589 0.470724 22.7517 2.82434 19.8751 9.10066 18.829 15.377 17.7829 19.0381 16.2138 20.0842 14.1217 21.1303 12.0296 22.6994 9.9375 24.7915 7.8454 26.8835 5.7533 29.2371 4.44572 31.8523 3.9227 34.4675 3.39968 37.0825 3.39968 39.6977 3.9227 42.3129 4.44572 44.6665 5.7533 46.7586 7.8454 48.8506 9.9375 49.8967 13.0757 49.8967 17.2599 49.8967 21.4441 49.3738 24.3207 48.3277 25.8898 47.2816 27.4589 45.974 28.505 44.405 29.028 42.8359 29.551 41.2668 29.551 39.6977 29.028 38.1286 28.505 36.8211 27.4589 35.775 25.8898 34.7289 24.3207 34.2059 20.921 34.2059 15.6908" stroke="#FFFFFF" stroke-width="3.13816" stroke-miterlimit="10" fill="#AA3939" transform="matrix(1.00438 0 0 1 1615.98 682.065)"/><path d="M35.775 15.6908C35.775 16.5574 35.0725 17.2599 34.2059 17.2599 33.3394 17.2599 32.6369 16.5574 32.6369 15.6908 32.6369 14.8242 33.3394 14.1217 34.2059 14.1217 35.0725 14.1217 35.775 14.8242 35.775 15.6908Z" fill="#FFFFFF" transform="matrix(1.00438 0 0 1 1615.98 682.065)"/><path d="M42.5551 70.0966C42.5551 70.6811 42.0813 71.1548 41.4969 71.1548 40.9124 71.1548 40.4386 70.6811 40.4386 70.0966 40.4386 69.5121 40.9124 69.0384 41.4969 69.0384 42.0813 69.0384 42.5551 69.5121 42.5551 70.0966Z" stroke="#FFFFFF" stroke-width="1.76087" stroke-linecap="square" fill="#FFFFFF" transform="matrix(1.00438 0 0 1 1600.52 630.358)"/><path d="M79.9561 80.562C79.9561 81.1464 79.4823 81.6202 78.8979 81.6202 78.3134 81.6202 77.8396 81.1464 77.8396 80.562 77.8396 79.9775 78.3134 79.5037 78.8979 79.5037 79.4823 79.5037 79.9561 79.9775 79.9561 80.562Z" stroke="#FFFFFF" stroke-width="1.76087" stroke-linecap="square" fill="#FFFFFF" transform="matrix(1.00438 0 0 1 1600.52 630.358)"/></g></g></g></g></svg>