<svg width="1959" height="780" xmlns="http://www.w3.org/2000/svg" xmlns:xlink="http://www.w3.org/1999/xlink" xml:space="preserve" overflow="hidden"><g transform="translate(-979 0)"><path d="M2592.44 374.499C2589.07 374.499 2585.1 375.437 2580.54 377.314 2575.97 379.191 2571.78 381.511 2567.97 384.275 2564.15 387.039 2561.03 389.876 2558.61 392.786 2556.18 395.697 2554.97 398.062 2554.97 399.881 2554.97 405.299 2557.96 408.008 2563.95 408.008 2566.01 408.008 2568.77 407.022 2572.22 405.051 2575.67 403.081 2579.13 400.497 2582.6 397.3 2586.08 394.103 2588.86 390.968 2590.95 387.895 2593.04 384.822 2594.08 382.199 2594.08 380.026 2594.08 377.891 2593.9 376.435 2593.55 375.661 2593.19 374.886 2592.82 374.499 2592.44 374.499ZM1686.92 325.721C1684.66 325.721 1682.24 326.604 1679.65 328.371 1677.06 330.138 1674.68 332.556 1672.51 335.624 1670.33 338.693 1668.54 342.291 1667.12 346.418 1665.7 350.545 1664.99 354.985 1664.99 359.738 1664.99 366.705 1666.56 372.175 1669.72 376.149 1672.87 380.123 1677.16 382.11 1682.6 382.11 1687.74 382.11 1692.32 379.674 1696.34 374.801 1700.36 369.929 1702.37 362.894 1702.37 353.695 1702.37 342.686 1700.87 335.271 1697.85 331.451 1694.84 327.631 1691.2 325.721 1686.92 325.721ZM1946.87 300.689C1942.5 300.689 1938.1 301.36 1933.66 302.703 1929.23 304.046 1925.37 305.727 1922.09 307.746 1918.81 309.765 1916.31 311.985 1914.58 314.405 1912.85 316.825 1911.99 318.986 1911.99 320.888 1911.99 321.534 1912.2 322.115 1912.61 322.631 1913.02 323.146 1913.65 323.404 1914.5 323.404 1918.28 323.404 1922.77 322.736 1927.98 321.4 1933.19 320.064 1938.19 318.507 1942.97 316.728 1947.75 314.95 1951.53 313.14 1954.29 311.297 1957.06 309.455 1958.44 308.336 1958.44 307.942 1958.44 306.187 1957.48 304.539 1955.55 302.999 1953.63 301.459 1950.73 300.689 1946.87 300.689ZM1431.87 300.689C1427.5 300.689 1423.1 301.36 1418.66 302.703 1414.23 304.046 1410.37 305.727 1407.09 307.746 1403.81 309.765 1401.31 311.985 1399.58 314.405 1397.85 316.825 1396.99 318.986 1396.99 320.888 1396.99 321.534 1397.2 322.115 1397.61 322.631 1398.02 323.146 1398.65 323.404 1399.5 323.404 1403.28 323.404 1407.77 322.736 1412.98 321.4 1418.19 320.064 1423.19 318.507 1427.97 316.728 1432.75 314.95 1436.53 313.14 1439.29 311.297 1442.06 309.455 1443.44 308.336 1443.44 307.942 1443.44 306.187 1442.48 304.539 1440.55 302.999 1438.63 301.459 1435.73 300.689 1431.87 300.689ZM1147.73 250.185C1142.24 250.185 1138.08 252.727 1135.24 257.81 1132.4 262.893 1130.99 270.107 1130.99 279.452 1130.99 286.648 1131.72 290.808 1133.2 291.934 1134.67 293.059 1137.07 293.621 1140.4 293.621 1142.37 293.621 1144.6 293.092 1147.07 292.033 1149.54 290.975 1152.01 289.329 1154.49 287.097 1156.98 284.865 1159.05 282.09 1160.7 278.771 1162.36 275.453 1163.19 271.651 1163.19 267.366 1163.19 255.912 1158.04 250.185 1147.73 250.185ZM1943.42 234.916C1958.82 234.916 1972.72 237.033 1985.12 241.268 1997.52 245.503 2007.95 251.325 2016.42 258.734 2024.88 266.143 2031.39 274.857 2035.95 284.876 2040.5 294.896 2042.78 305.605 2042.78 317.003 2042.78 327.137 2039.49 335.413 2032.91 341.832 2026.33 348.251 2018.4 353.333 2009.11 357.078 1999.82 360.822 1990.12 363.761 1980.02 365.895 1969.93 368.028 1960.41 369.961 1951.46 371.694 1942.51 373.426 1935.57 375.075 1930.63 376.641 1925.69 378.206 1923.22 379.476 1923.22 380.453 1923.22 383.377 1924.89 386.182 1928.25 388.868 1931.6 391.554 1938.39 392.896 1948.6 392.896 1955.18 392.896 1961.24 391.708 1966.78 389.332 1972.32 386.955 1977.46 384.192 1982.19 381.041 1986.92 377.889 1991.4 374.906 1995.62 372.089 1999.85 369.273 2003.75 367.865 2007.33 367.865 2012.22 368.263 2016.88 370.051 2021.33 373.227 2025.77 376.403 2029.92 380.225 2033.77 384.691 2037.62 389.158 2040.8 393.987 2043.32 399.18 2045.84 404.373 2047.1 409.355 2047.1 414.126 2047.1 419.796 2044.23 425.973 2038.51 432.658 2032.78 439.343 2025.22 445.443 2015.82 450.959 2006.43 456.475 1995.38 461.153 1982.67 464.991 1969.97 468.83 1956.16 470.749 1941.26 470.749 1924.53 470.749 1908.82 468.155 1894.14 462.966 1879.46 457.778 1866.55 450.216 1855.41 440.279 1844.27 430.342 1835.57 418.358 1829.29 404.326 1823.02 390.294 1819.89 374.423 1819.89 356.713 1819.89 338.893 1822.99 322.602 1829.19 307.839 1835.39 293.076 1844.03 280.223 1855.13 269.281 1866.22 258.338 1879.32 249.875 1894.42 243.891 1909.53 237.908 1925.86 234.916 1943.42 234.916ZM1428.42 234.916C1443.82 234.916 1457.72 237.033 1470.12 241.268 1482.52 245.503 1492.95 251.325 1501.42 258.734 1509.88 266.143 1516.39 274.857 1520.95 284.876 1525.5 294.896 1527.78 305.605 1527.78 317.003 1527.78 327.137 1524.49 335.413 1517.91 341.832 1511.33 348.251 1503.4 353.333 1494.11 357.078 1484.82 360.822 1475.12 363.761 1465.02 365.895 1454.93 368.028 1445.41 369.961 1436.46 371.694 1427.51 373.426 1420.57 375.075 1415.63 376.641 1410.69 378.206 1408.22 379.476 1408.22 380.453 1408.22 383.377 1409.89 386.182 1413.25 388.868 1416.6 391.554 1423.39 392.896 1433.6 392.896 1440.18 392.896 1446.24 391.708 1451.78 389.332 1457.32 386.955 1462.46 384.192 1467.19 381.041 1471.92 377.889 1476.4 374.906 1480.62 372.089 1484.85 369.273 1488.75 367.865 1492.33 367.865 1497.22 368.263 1501.88 370.051 1506.33 373.227 1510.77 376.403 1514.92 380.225 1518.77 384.691 1522.62 389.158 1525.8 393.987 1528.32 399.18 1530.84 404.373 1532.1 409.355 1532.1 414.126 1532.1 419.796 1529.23 425.973 1523.51 432.658 1517.78 439.343 1510.22 445.443 1500.82 450.959 1491.43 456.475 1480.38 461.153 1467.67 464.991 1454.97 468.83 1441.16 470.749 1426.26 470.749 1409.53 470.749 1393.82 468.155 1379.14 462.966 1364.46 457.778 1351.55 450.216 1340.41 440.279 1329.27 430.342 1320.57 418.358 1314.29 404.326 1308.02 390.294 1304.89 374.423 1304.89 356.713 1304.89 338.893 1307.99 322.602 1314.19 307.839 1320.39 293.076 1329.03 280.223 1340.13 269.281 1351.22 258.338 1364.32 249.875 1379.42 243.891 1394.53 237.908 1410.86 234.916 1428.42 234.916ZM2375.36 234.056C2383.03 234.056 2390.55 235.468 2397.92 238.291 2405.29 241.115 2411.7 245.176 2417.16 250.474 2422.61 255.772 2426.95 262.026 2430.18 269.236 2433.4 276.445 2435.01 284.31 2435.01 292.831 2435.01 304.042 2434.64 314.318 2433.9 323.658 2433.15 332.999 2432.5 341.457 2431.92 349.031 2431.35 356.604 2431.13 363.419 2431.27 369.473 2431.41 375.528 2432.3 381.429 2433.94 387.176 2435.3 392.049 2436.97 395.95 2438.97 398.881 2440.96 401.812 2442.89 404.42 2444.75 406.705 2446.61 408.99 2448.33 411.362 2449.91 413.821 2451.49 416.279 2452.28 419.258 2452.28 422.755 2452.28 428.814 2449.72 434.638 2444.61 440.227 2439.5 445.817 2433.26 450.866 2425.9 455.376 2418.53 459.886 2410.46 463.576 2401.7 466.445 2392.94 469.314 2384.59 470.749 2376.65 470.749 2368.12 470.749 2360.84 468.476 2354.83 463.929 2348.82 459.382 2343.98 452.267 2340.29 442.582 2336.6 432.897 2333.95 420.862 2332.35 406.475 2330.75 392.087 2329.95 374.494 2329.95 353.695 2329.95 343.598 2329.09 336.987 2327.37 333.861 2325.64 330.735 2323.8 329.172 2321.84 329.172 2320.04 329.172 2318.03 329.785 2315.8 331.011 2313.56 332.237 2311.53 334.435 2309.71 337.604 2307.88 340.774 2306.29 345.451 2304.94 351.636 2303.6 357.821 2302.93 365.701 2302.93 375.276 2302.93 381.945 2303.32 387.465 2304.12 391.838 2304.92 396.21 2305.9 400.452 2307.07 404.563 2308.25 408.675 2309.29 412.852 2310.2 417.096 2311.11 421.341 2311.56 425.961 2311.56 430.956 2311.56 436.919 2309.49 442.306 2305.34 447.116 2301.2 451.926 2295.88 456.032 2289.39 459.433 2282.9 462.834 2275.79 465.427 2268.05 467.212 2260.32 468.997 2252.35 469.89 2244.15 469.89 2235.94 469.89 2229.29 467.932 2224.18 464.018 2219.07 460.104 2215.21 453.467 2212.6 444.108 2210 434.749 2208.33 422.425 2207.6 407.135 2206.87 391.845 2206.51 372.448 2206.51 348.945 2206.51 340.722 2205.71 335.515 2204.12 333.325 2202.52 331.134 2200.47 330.038 2197.96 330.038 2191.94 330.038 2187.5 331.983 2184.64 335.872 2181.78 339.761 2180.35 347.716 2180.35 359.738 2180.35 363.075 2180.69 367.947 2181.39 374.355 2182.09 380.762 2182.8 387.707 2183.52 395.189 2184.23 402.672 2184.96 410.275 2185.7 418.001 2186.45 425.726 2186.82 431.772 2186.82 436.14 2186.82 447.379 2183.51 456.388 2176.89 463.169 2170.28 469.95 2159.6 473.341 2144.86 473.341 2136.25 473.341 2127.56 472.976 2118.81 472.248 2110.06 471.519 2102.01 470.16 2094.66 468.171 2087.31 466.182 2081.02 463.162 2075.79 459.113 2070.57 455.064 2067.95 449.562 2067.95 442.61 2067.95 435.088 2068.74 425.288 2070.33 413.209 2071.91 401.129 2072.7 386.471 2072.7 369.233 2072.7 359.333 2072.12 350.517 2070.98 342.785 2069.83 335.053 2068.55 328.204 2067.13 322.239 2065.71 316.273 2064.41 310.795 2063.24 305.804 2062.06 300.813 2061.48 295.913 2061.48 291.105 2061.48 285.536 2064.4 279.748 2070.25 273.739 2076.1 267.73 2083.04 262.351 2091.05 257.6 2099.06 252.849 2107.6 248.888 2116.66 245.716 2125.72 242.545 2133.68 240.959 2140.55 240.959 2145.53 240.959 2149.75 242.602 2153.2 245.888 2156.65 249.175 2159.41 252.578 2161.46 256.098 2163.52 259.618 2165.22 262.435 2166.55 264.551 2167.89 266.666 2168.57 267.723 2168.6 267.723 2168.68 267.723 2170.06 266.317 2172.74 263.506 2175.43 260.694 2179.62 257.265 2185.31 253.221 2191 249.176 2198.11 245.401 2206.64 241.897 2215.17 238.393 2225.51 236.641 2237.67 236.641 2250.69 236.641 2261.15 238.428 2269.07 242.001 2276.99 245.573 2283.18 249.586 2287.63 254.039 2292.08 258.491 2295.09 262.101 2296.65 264.867 2298.21 267.633 2298.84 269.016 2298.53 269.016 2299.33 269.016 2301.48 267.397 2304.98 264.159 2308.47 260.921 2313.44 256.978 2319.89 252.33 2326.33 247.683 2334.08 243.475 2343.12 239.708 2352.17 235.94 2362.91 234.056 2375.36 234.056ZM2599.78 233.19C2611.7 233.19 2623.17 234.851 2634.2 238.171 2645.22 241.492 2654.99 246.499 2663.5 253.193 2672.02 259.887 2678.87 268.027 2684.04 277.613 2689.21 287.199 2691.8 298.028 2691.8 310.101 2691.8 321.642 2691.42 331.812 2690.66 340.612 2689.91 349.412 2689.03 357 2688.04 363.375 2687.05 369.751 2686.2 375.236 2685.51 379.831 2684.81 384.425 2684.46 388.806 2684.46 392.972 2684.46 400.205 2684.94 405.713 2685.88 409.496 2686.83 413.28 2687.88 416.27 2689.04 418.468 2690.21 420.666 2691.46 422.606 2692.8 424.288 2694.15 425.97 2694.82 428.337 2694.82 431.39 2694.82 435.767 2692.54 440.313 2687.99 445.03 2683.43 449.746 2677.89 454.077 2671.36 458.023 2664.84 461.97 2657.83 465.294 2650.33 467.996 2642.82 470.697 2635.76 472.048 2629.13 472.048 2623.48 472.048 2618.72 471.04 2614.86 469.023 2611 467.007 2607.91 464.839 2605.59 462.52 2603.27 460.2 2601.57 458.33 2600.47 456.91 2599.38 455.489 2599.01 454.778 2599.35 454.778 2598.64 454.778 2596.63 455.608 2593.32 457.267 2590 458.926 2585.59 460.771 2580.08 462.801 2574.56 464.832 2568.25 466.736 2561.13 468.515 2554.01 470.293 2546.32 471.182 2538.05 471.182 2514.37 471.182 2496.42 465.385 2484.2 453.792 2471.99 442.198 2465.89 427.968 2465.89 411.101 2465.89 396.302 2469.15 383.884 2475.69 373.849 2482.23 363.814 2490.46 355.562 2500.39 349.092 2510.32 342.623 2520.79 337.554 2531.8 333.885 2542.81 330.216 2552.99 327.035 2562.34 324.342 2571.7 321.65 2579.04 319.188 2584.37 316.959 2589.69 314.729 2592.36 312.443 2592.36 310.101 2592.36 309.166 2591.73 308.154 2590.47 307.066 2589.21 305.977 2586.85 305.433 2583.38 305.433 2574.46 305.433 2566.05 306.954 2558.16 309.998 2550.27 313.041 2543.19 316.37 2536.9 319.984 2530.61 323.598 2524.64 327.184 2518.98 330.743 2513.32 334.302 2508.31 336.081 2503.95 336.081 2496.06 336.081 2490.91 332.378 2488.5 324.971 2486.09 317.565 2484.88 310.016 2484.88 302.325 2484.88 297.105 2485.18 292.219 2485.79 287.668 2486.4 283.116 2487.56 279.47 2489.27 276.73 2492.01 270.941 2496.68 265.356 2503.3 259.975 2509.91 254.594 2517.95 249.98 2527.42 246.132 2536.9 242.285 2547.83 239.166 2560.22 236.776 2572.62 234.385 2585.8 233.19 2599.78 233.19ZM1152.92 157.655C1170.52 157.655 1186.86 159.745 1201.94 163.925 1217.02 168.105 1230.04 174.326 1241.01 182.59 1251.98 190.854 1260.49 201.327 1266.53 214.009 1272.57 226.691 1275.59 241.168 1275.59 257.438 1275.59 273.87 1272.86 287.84 1267.41 299.348 1261.96 310.857 1256.48 319.251 1250.98 324.531 1243.77 333.984 1236.7 340.408 1229.77 343.804L1228.13 344.508 1228.64 344.512C1229.63 344.71 1231 345.294 1232.74 346.263 1237.39 349 1242.89 354.442 1249.22 362.591 1252.88 367.771 1255.91 372.813 1258.29 377.72 1260.67 382.626 1263.04 387.294 1265.4 391.724 1267.76 396.154 1270.05 399.72 1272.26 402.422 1274.47 405.124 1276.97 406.903 1279.76 407.76 1283.5 408.879 1286.32 410.506 1288.24 412.641 1290.16 414.777 1291.12 418.293 1291.12 423.188 1291.12 429.531 1288.44 435.473 1283.06 441.015 1277.68 446.556 1271.11 451.267 1263.35 455.15 1255.58 459.032 1247.06 462.171 1237.77 464.568 1228.48 466.965 1219.33 468.164 1210.32 468.164 1201.01 468.164 1193.67 466.367 1188.28 462.774 1182.89 459.181 1178.63 454.415 1175.51 448.477 1172.39 442.54 1169.68 436.215 1167.4 429.502 1165.11 422.79 1162.23 415.68 1158.77 408.173 1154.48 399.597 1151.29 394.431 1149.2 392.673 1147.12 390.915 1144.76 390.036 1142.12 390.036 1139.16 390.036 1137.14 390.324 1136.06 390.899 1134.98 391.474 1134.44 393.749 1134.44 397.723 1134.44 402.994 1134.8 407.695 1135.52 411.827 1136.24 415.959 1137 419.518 1137.81 422.504 1138.61 425.49 1139.4 428.516 1140.18 431.582 1140.96 434.648 1141.35 437.749 1141.35 440.884 1141.35 445.889 1138.42 450.399 1132.56 454.414 1126.7 458.429 1119.94 461.839 1112.26 464.644 1104.59 467.449 1096.22 469.744 1087.15 471.529 1078.08 473.314 1069.5 474.207 1061.41 474.207 1053.93 474.207 1047.72 471.166 1042.79 465.084 1037.86 459.002 1033.97 450.703 1031.11 440.186 1028.26 429.67 1026.18 417.149 1024.87 402.625 1023.56 388.1 1022.91 371.646 1022.91 353.262 1022.91 333.531 1023.57 314.205 1024.88 295.285 1026.19 276.365 1028.13 259.322 1030.7 244.156 1033.28 228.99 1036.69 215.776 1040.96 204.515 1045.22 193.253 1050.7 185.599 1057.41 181.552 1069.68 174.228 1083.61 168.414 1099.19 164.11 1114.77 159.806 1132.68 157.655 1152.92 157.655ZM1771.95 130.031C1796.17 130.031 1808.29 143.293 1808.29 169.816 1808.29 180.601 1807.55 193.599 1806.07 208.811 1804.59 224.024 1802.92 239.821 1801.05 256.204 1799.18 272.587 1797.55 288.98 1796.15 305.381 1794.74 321.783 1794.04 337.743 1794.04 353.262 1794.04 365.069 1795 374.19 1796.92 380.625 1798.84 387.06 1801.03 392.27 1803.5 396.255 1805.97 400.24 1808.32 403.823 1810.55 407.004 1812.78 410.185 1813.9 414.14 1813.9 418.87 1813.9 424.283 1811.27 429.942 1806 435.848 1800.74 441.754 1794.52 447.172 1787.34 452.104 1780.17 457.036 1772.29 461.233 1763.71 464.696 1755.12 468.158 1747.08 469.89 1739.57 469.89 1734.26 469.89 1729.96 468.675 1726.66 466.246 1723.37 463.817 1720.74 461.255 1718.8 458.56 1716.85 455.865 1715.24 453.77 1713.96 452.276 1712.68 450.782 1711.72 450.035 1711.09 450.035 1709.7 450.035 1707.65 450.936 1704.95 452.74 1702.24 454.543 1698.16 456.733 1692.71 459.309 1687.26 461.885 1680.56 464.22 1672.63 466.315 1664.69 468.409 1654.92 469.456 1643.32 469.456 1630.41 469.456 1618.51 466.511 1607.64 460.619 1596.76 454.727 1587.39 446.858 1579.51 437.013 1571.63 427.168 1565.53 415.996 1561.22 403.498 1556.91 390.999 1554.75 377.994 1554.75 364.482 1554.75 344.934 1558.15 327.544 1564.95 312.311 1571.76 297.078 1580.29 284.103 1590.56 273.385 1600.83 262.667 1612.09 254.511 1624.34 248.917 1636.59 243.323 1648.09 240.526 1658.86 240.526 1665.99 240.526 1672.35 241.146 1677.93 242.386 1683.51 243.625 1688.19 245.014 1691.96 246.552 1695.74 248.089 1698.8 249.413 1701.15 250.522 1703.51 251.631 1705.09 252.186 1705.91 252.186 1707.29 252.186 1707.98 249.764 1707.98 244.919 1707.98 238.209 1707.21 231.411 1705.66 224.524 1704.11 217.638 1702.49 211.369 1700.78 205.718 1699.07 200.066 1697.33 194.164 1695.55 188.011 1693.77 181.858 1692.88 176.513 1692.88 171.975 1692.88 167.071 1695.86 162.197 1701.84 157.352 1707.81 152.508 1714.69 148.102 1722.48 144.135 1730.27 140.168 1738.69 136.826 1747.75 134.108 1756.8 131.39 1764.87 130.031 1771.95 130.031Z" stroke="#FFFFFF" stroke-width="14" stroke-linejoin="round" stroke-miterlimit="10" fill="#AA3939" fill-rule="evenodd"/><text fill="#000000" fill-opacity="0" font-family="Arial,Arial_MSFontService,sans-serif" font-size="344.176" x="1022.91" y="431.185">Redema</text></g></svg>